<svg xmlns="http://www.w3.org/2000/svg" xmlns:xlink="http://www.w3.org/1999/xlink" width="92" zoomAndPan="magnify" viewBox="0 0 69 68.999997" height="92" preserveAspectRatio="xMidYMid meet" version="1.0"><defs><clipPath id="ddc0799617"><path d="M 0.375 0.375 L 68.625 0.375 L 68.625 68.625 L 0.375 68.625 Z M 0.375 0.375 " clip-rule="nonzero"/></clipPath></defs><path fill="#b996ff" d="M 37.414062 17.496094 C 38.191406 16.71875 38.621094 15.683594 38.621094 14.578125 C 38.621094 12.300781 36.765625 10.457031 34.496094 10.457031 C 32.226562 10.457031 30.375 12.308594 30.375 14.578125 C 30.375 15.683594 30.804688 16.71875 31.582031 17.496094 L 45.660156 31.582031 L 42.746094 34.496094 L 28.664062 20.410156 C 27.171875 18.917969 26.25 16.847656 26.25 14.570312 C 26.25 10.019531 29.941406 6.324219 34.496094 6.324219 C 39.050781 6.324219 42.746094 10.019531 42.746094 14.570312 C 42.746094 16.847656 41.820312 18.910156 40.328125 20.402344 Z M 37.414062 17.496094 " fill-opacity="1" fill-rule="nonzero"/><path fill="#b996ff" d="M 37.414062 17.496094 L 37.976562 18.058594 C 38.90625 17.132812 39.417969 15.882812 39.417969 14.570312 C 39.417969 11.859375 37.210938 9.648438 34.496094 9.648438 C 31.78125 9.648438 29.582031 11.859375 29.574219 14.570312 C 29.574219 15.882812 30.089844 17.128906 31.019531 18.058594 L 44.535156 31.582031 L 42.75 33.367188 L 29.226562 19.847656 C 27.875 18.496094 27.046875 16.632812 27.046875 14.578125 C 27.046875 14.371094 26.964844 14.164062 26.8125 14.015625 C 26.660156 13.871094 26.457031 13.78125 26.25 13.78125 C 26.042969 13.78125 25.832031 13.863281 25.6875 14.015625 C 25.542969 14.167969 25.449219 14.371094 25.449219 14.578125 C 25.449219 14.789062 25.535156 14.996094 25.6875 15.140625 C 25.839844 15.289062 26.042969 15.378906 26.25 15.378906 C 26.457031 15.378906 26.664062 15.292969 26.8125 15.140625 C 26.957031 14.988281 27.046875 14.789062 27.046875 14.578125 C 27.054688 10.460938 30.386719 7.136719 34.496094 7.128906 C 38.613281 7.136719 41.9375 10.46875 41.945312 14.578125 C 41.945312 16.640625 41.113281 18.496094 39.765625 19.847656 L 40.328125 20.410156 L 40.890625 19.847656 L 37.976562 16.933594 L 37.414062 17.496094 L 37.976562 18.058594 L 37.414062 17.496094 L 36.851562 18.058594 L 39.765625 20.972656 C 39.914062 21.117188 40.121094 21.210938 40.328125 21.210938 C 40.535156 21.210938 40.746094 21.125 40.890625 20.972656 C 42.53125 19.335938 43.542969 17.070312 43.542969 14.570312 C 43.542969 9.574219 39.496094 5.527344 34.496094 5.527344 C 29.5 5.527344 25.449219 9.574219 25.449219 14.570312 C 25.449219 14.78125 25.535156 14.988281 25.6875 15.132812 C 25.839844 15.28125 26.042969 15.371094 26.25 15.371094 C 26.457031 15.371094 26.664062 15.289062 26.8125 15.132812 C 26.957031 14.980469 27.046875 14.78125 27.046875 14.570312 C 27.046875 14.363281 26.964844 14.15625 26.8125 14.011719 C 26.660156 13.863281 26.457031 13.773438 26.25 13.773438 C 26.042969 13.773438 25.832031 13.855469 25.6875 14.011719 C 25.542969 14.164062 25.449219 14.363281 25.449219 14.570312 C 25.449219 17.066406 26.464844 19.335938 28.101562 20.972656 L 42.1875 35.050781 C 42.5 35.363281 43.007812 35.363281 43.320312 35.050781 L 46.238281 32.136719 C 46.382812 31.992188 46.472656 31.78125 46.472656 31.574219 C 46.472656 31.367188 46.390625 31.15625 46.238281 31.011719 L 32.144531 16.933594 C 31.511719 16.300781 31.171875 15.476562 31.164062 14.578125 C 31.164062 12.746094 32.65625 11.253906 34.488281 11.253906 C 36.324219 11.253906 37.816406 12.746094 37.816406 14.578125 C 37.816406 15.476562 37.476562 16.300781 36.84375 16.933594 C 36.691406 17.085938 36.609375 17.285156 36.609375 17.496094 C 36.609375 17.710938 36.691406 17.910156 36.84375 18.058594 Z M 37.414062 17.496094 " fill-opacity="1" fill-rule="nonzero"/><path fill="#b996ff" d="M 51.492188 37.414062 C 52.269531 38.191406 53.304688 38.621094 54.40625 38.621094 C 56.679688 38.621094 58.53125 36.765625 58.53125 34.496094 C 58.53125 32.21875 56.683594 30.375 54.414062 30.375 C 53.3125 30.375 52.277344 30.804688 51.5 31.582031 L 37.414062 45.660156 L 34.496094 42.746094 L 48.582031 28.664062 C 50.074219 27.171875 52.136719 26.25 54.414062 26.25 C 58.96875 26.25 62.664062 29.941406 62.664062 34.503906 C 62.664062 39.066406 58.96875 42.75 54.414062 42.75 C 52.136719 42.75 50.074219 41.828125 48.582031 40.335938 Z M 51.492188 37.414062 " fill-opacity="1" fill-rule="nonzero"/><path fill="#b996ff" d="M 51.492188 37.414062 L 50.929688 37.976562 C 51.851562 38.90625 53.101562 39.417969 54.414062 39.417969 C 57.128906 39.417969 59.335938 37.210938 59.335938 34.496094 C 59.335938 31.78125 57.136719 29.574219 54.421875 29.574219 C 54.207031 29.574219 54.003906 29.65625 53.859375 29.8125 C 53.707031 29.964844 53.625 30.164062 53.625 30.375 L 54.421875 30.375 L 54.421875 29.574219 C 53.109375 29.574219 51.867188 30.089844 50.9375 31.011719 L 37.414062 44.535156 L 35.628906 42.75 L 49.144531 29.226562 C 50.5 27.882812 52.351562 27.046875 54.414062 27.046875 C 54.78125 27.046875 55.109375 26.789062 55.191406 26.429688 C 55.277344 26.070312 55.101562 25.695312 54.769531 25.535156 L 54.414062 26.25 L 54.414062 27.046875 C 58.53125 27.054688 61.855469 30.386719 61.863281 34.503906 C 61.855469 38.621094 58.523438 41.945312 54.414062 41.953125 C 52.351562 41.953125 50.5 41.121094 49.144531 39.773438 L 48.582031 40.335938 L 49.144531 40.898438 L 52.0625 37.980469 L 51.492188 37.414062 L 50.929688 37.976562 L 51.492188 37.414062 L 50.929688 36.851562 L 48.015625 39.765625 C 47.703125 40.078125 47.703125 40.585938 48.015625 40.898438 C 49.644531 42.535156 51.914062 43.550781 54.414062 43.550781 C 59.414062 43.550781 63.460938 39.503906 63.460938 34.503906 C 63.460938 29.503906 59.414062 25.449219 54.414062 25.449219 C 54.046875 25.449219 53.71875 25.707031 53.636719 26.070312 C 53.554688 26.429688 53.726562 26.804688 54.0625 26.964844 L 54.414062 26.25 L 54.414062 25.449219 C 51.914062 25.449219 49.652344 26.464844 48.015625 28.101562 L 33.933594 42.183594 C 33.789062 42.328125 33.699219 42.535156 33.699219 42.746094 C 33.699219 42.953125 33.78125 43.160156 33.933594 43.308594 L 36.851562 46.222656 C 37.164062 46.535156 37.667969 46.535156 37.980469 46.222656 L 52.0625 32.144531 C 52.699219 31.511719 53.519531 31.171875 54.414062 31.171875 C 54.625 31.171875 54.832031 31.089844 54.976562 30.933594 C 55.121094 30.78125 55.214844 30.582031 55.214844 30.375 L 54.414062 30.375 L 54.414062 31.171875 C 56.246094 31.171875 57.742188 32.664062 57.734375 34.496094 C 57.734375 36.328125 56.242188 37.824219 54.40625 37.824219 C 53.511719 37.824219 52.6875 37.480469 52.054688 36.851562 C 51.902344 36.699219 51.699219 36.613281 51.492188 36.613281 C 51.277344 36.613281 51.074219 36.699219 50.929688 36.851562 Z M 51.492188 37.414062 " fill-opacity="1" fill-rule="nonzero"/><path fill="#b996ff" d="M 17.496094 31.582031 C 16.710938 30.804688 15.683594 30.375 14.578125 30.375 C 12.300781 30.375 10.457031 32.226562 10.457031 34.496094 C 10.457031 36.773438 12.300781 38.621094 14.578125 38.628906 C 15.683594 38.628906 16.71875 38.199219 17.496094 37.417969 L 31.582031 23.332031 L 34.496094 26.25 L 20.410156 40.328125 C 18.917969 41.820312 16.847656 42.746094 14.570312 42.746094 C 10.011719 42.746094 6.324219 39.050781 6.324219 34.488281 C 6.324219 29.9375 10.019531 26.242188 14.570312 26.242188 C 16.847656 26.242188 18.910156 27.164062 20.402344 28.660156 Z M 17.496094 31.582031 " fill-opacity="1" fill-rule="nonzero"/><path fill="#b996ff" d="M 17.496094 31.582031 L 18.058594 31.019531 C 17.132812 30.089844 15.882812 29.574219 14.570312 29.574219 C 11.859375 29.574219 9.648438 31.78125 9.648438 34.496094 C 9.648438 37.210938 11.851562 39.417969 14.570312 39.425781 C 14.789062 39.425781 14.988281 39.34375 15.132812 39.191406 C 15.289062 39.039062 15.371094 38.835938 15.371094 38.628906 L 14.570312 38.628906 L 14.570312 39.425781 C 15.882812 39.425781 17.128906 38.914062 18.058594 37.980469 L 31.582031 24.457031 L 33.367188 26.242188 L 19.847656 39.765625 C 18.496094 41.113281 16.632812 41.945312 14.578125 41.953125 C 14.226562 41.953125 13.917969 42.183594 13.816406 42.515625 C 13.710938 42.847656 13.84375 43.214844 14.136719 43.410156 L 14.578125 42.75 L 14.578125 41.953125 C 10.460938 41.9375 7.136719 38.613281 7.128906 34.496094 C 7.136719 30.378906 10.460938 27.054688 14.578125 27.046875 C 16.640625 27.046875 18.496094 27.882812 19.847656 29.226562 L 20.410156 28.664062 L 19.847656 28.101562 L 16.933594 31.019531 L 17.496094 31.582031 L 18.058594 31.019531 L 17.496094 31.582031 L 18.058594 32.144531 L 20.972656 29.226562 C 21.125 29.074219 21.210938 28.875 21.210938 28.664062 C 21.210938 28.449219 21.125 28.25 20.972656 28.101562 C 19.335938 26.472656 17.070312 25.449219 14.570312 25.457031 C 9.574219 25.457031 5.527344 29.503906 5.527344 34.503906 C 5.527344 39.503906 9.574219 43.558594 14.570312 43.558594 C 14.925781 43.558594 15.230469 43.328125 15.335938 42.996094 C 15.441406 42.660156 15.308594 42.292969 15.015625 42.097656 L 14.570312 42.757812 L 14.570312 43.558594 C 17.066406 43.558594 19.335938 42.542969 20.972656 40.90625 L 35.058594 26.824219 C 35.371094 26.511719 35.371094 26.007812 35.058594 25.695312 L 32.144531 22.777344 C 31.832031 22.464844 31.324219 22.464844 31.011719 22.777344 L 16.933594 36.851562 C 16.292969 37.480469 15.476562 37.824219 14.578125 37.828125 C 14.371094 37.828125 14.164062 37.914062 14.015625 38.066406 C 13.871094 38.21875 13.78125 38.417969 13.78125 38.628906 L 14.578125 38.628906 L 14.578125 37.828125 C 12.746094 37.828125 11.253906 36.335938 11.253906 34.496094 C 11.253906 32.664062 12.746094 31.179688 14.578125 31.171875 C 15.476562 31.171875 16.292969 31.511719 16.933594 32.144531 C 17.246094 32.457031 17.75 32.457031 18.0625 32.144531 Z M 17.496094 31.582031 " fill-opacity="1" fill-rule="nonzero"/><g clip-path="url(#ddc0799617)"><path fill="#b996ff" d="M 54.414062 21.089844 L 53.617188 21.089844 L 54.414062 21.089844 L 54.414062 20.292969 C 50.992188 20.292969 47.75 21.507812 45.179688 23.714844 L 45.703125 24.320312 L 46.265625 23.757812 L 45.242188 22.738281 L 44.679688 23.300781 L 45.285156 23.820312 C 47.492188 21.25 48.703125 18 48.703125 14.578125 C 48.703125 6.75 42.335938 0.375 34.496094 0.375 C 26.660156 0.375 20.292969 6.75 20.292969 14.578125 C 20.292969 18 21.515625 21.242188 23.714844 23.8125 L 24.320312 23.292969 L 23.757812 22.730469 L 22.738281 23.75 L 23.300781 24.3125 L 23.820312 23.707031 C 21.25 21.5 17.996094 20.292969 14.570312 20.292969 C 6.75 20.292969 0.375 26.664062 0.375 34.496094 C 0.375 42.335938 6.75 48.703125 14.578125 48.707031 C 14.789062 48.707031 14.996094 48.625 15.140625 48.472656 C 15.289062 48.320312 15.378906 48.117188 15.378906 47.910156 L 14.578125 47.910156 L 14.578125 48.707031 C 18 48.707031 21.242188 47.492188 23.8125 45.285156 L 23.292969 44.679688 L 22.730469 45.242188 L 23.75 46.265625 L 24.3125 45.703125 L 23.707031 45.179688 C 21.5 47.75 20.292969 51.007812 20.292969 54.421875 C 20.292969 62.253906 26.664062 68.625 34.496094 68.625 C 42.335938 68.625 48.703125 62.253906 48.703125 54.421875 C 48.703125 54.214844 48.617188 54.003906 48.464844 53.859375 C 48.3125 53.714844 48.109375 53.625 47.902344 53.625 L 47.902344 54.421875 L 48.703125 54.421875 C 48.703125 51 47.488281 47.757812 45.277344 45.1875 L 44.675781 45.710938 L 45.238281 46.269531 L 46.257812 45.25 L 45.695312 44.6875 L 45.175781 45.292969 C 47.742188 47.507812 51 48.707031 54.421875 48.707031 C 62.253906 48.707031 68.625 42.335938 68.625 34.503906 C 68.625 26.664062 62.253906 20.300781 54.421875 20.292969 C 54.214844 20.292969 54.003906 20.375 53.859375 20.527344 C 53.714844 20.679688 53.625 20.882812 53.625 21.089844 L 54.414062 21.089844 L 54.414062 21.890625 C 61.363281 21.902344 67.007812 27.546875 67.023438 34.496094 C 67.007812 41.445312 61.363281 47.089844 54.414062 47.105469 C 51.367188 47.105469 48.5 46.035156 46.207031 44.070312 C 45.890625 43.800781 45.417969 43.8125 45.125 44.113281 L 44.105469 45.132812 C 43.8125 45.425781 43.792969 45.902344 44.0625 46.214844 C 46.027344 48.507812 47.105469 51.367188 47.105469 54.40625 C 47.105469 54.617188 47.1875 54.824219 47.339844 54.96875 C 47.492188 55.117188 47.695312 55.207031 47.902344 55.207031 L 47.902344 54.40625 L 47.105469 54.40625 C 47.089844 61.363281 41.445312 67.007812 34.496094 67.023438 C 27.546875 67.007812 21.894531 61.363281 21.890625 54.414062 C 21.890625 51.367188 22.957031 48.5 24.921875 46.207031 C 25.195312 45.890625 25.179688 45.417969 24.882812 45.125 L 23.859375 44.105469 C 23.570312 43.8125 23.089844 43.792969 22.777344 44.0625 C 20.488281 46.027344 17.625 47.105469 14.585938 47.105469 C 14.378906 47.105469 14.167969 47.1875 14.023438 47.339844 C 13.878906 47.492188 13.789062 47.695312 13.789062 47.902344 L 14.585938 47.902344 L 14.585938 47.105469 C 7.628906 47.089844 1.984375 41.445312 1.972656 34.496094 C 1.984375 27.546875 7.628906 21.902344 14.578125 21.890625 C 17.625 21.890625 20.492188 22.957031 22.785156 24.921875 C 23.105469 25.195312 23.578125 25.171875 23.867188 24.882812 L 24.890625 23.859375 C 25.179688 23.570312 25.199219 23.089844 24.929688 22.777344 C 22.964844 20.492188 21.890625 17.625 21.890625 14.585938 C 21.902344 7.628906 27.546875 1.984375 34.496094 1.972656 C 41.445312 1.984375 47.089844 7.628906 47.105469 14.578125 C 47.105469 17.625 46.035156 20.5 44.078125 22.785156 C 43.808594 23.105469 43.820312 23.578125 44.121094 23.867188 L 45.140625 24.890625 C 45.429688 25.179688 45.910156 25.199219 46.222656 24.929688 C 48.515625 22.964844 51.375 21.890625 54.414062 21.890625 C 54.625 21.890625 54.832031 21.804688 54.976562 21.652344 C 55.121094 21.5 55.214844 21.300781 55.214844 21.089844 L 54.414062 21.089844 L 54.414062 21.890625 Z M 54.414062 21.089844 " fill-opacity="1" fill-rule="nonzero"/></g><path fill="#b996ff" d="M 31.582031 51.492188 C 30.804688 52.269531 30.375 53.304688 30.375 54.40625 C 30.375 56.679688 32.226562 58.53125 34.496094 58.53125 C 36.765625 58.53125 38.621094 56.683594 38.621094 54.40625 C 38.621094 53.304688 38.191406 52.269531 37.414062 51.492188 L 23.328125 37.414062 L 26.242188 34.496094 L 40.328125 48.582031 C 41.820312 50.074219 42.746094 52.136719 42.746094 54.414062 C 42.746094 58.96875 39.050781 62.664062 34.496094 62.664062 C 29.9375 62.664062 26.25 58.96875 26.25 54.414062 C 26.25 52.136719 27.171875 50.074219 28.664062 48.582031 Z M 31.582031 51.492188 " fill-opacity="1" fill-rule="nonzero"/><path fill="#b996ff" d="M 31.582031 51.492188 L 31.019531 50.929688 C 30.09375 51.851562 29.574219 53.101562 29.582031 54.40625 C 29.582031 57.121094 31.789062 59.332031 34.503906 59.332031 C 37.21875 59.332031 39.425781 57.128906 39.425781 54.40625 C 39.425781 54.191406 39.34375 53.992188 39.191406 53.84375 C 39.039062 53.691406 38.835938 53.609375 38.628906 53.609375 L 38.628906 54.40625 L 39.425781 54.40625 C 39.425781 53.097656 38.914062 51.851562 37.988281 50.921875 L 24.457031 37.414062 L 26.242188 35.621094 L 39.757812 49.144531 C 41.113281 50.5 41.945312 52.351562 41.945312 54.414062 C 41.945312 54.789062 42.203125 55.109375 42.5625 55.191406 C 42.925781 55.277344 43.300781 55.09375 43.460938 54.761719 L 42.738281 54.414062 L 41.9375 54.414062 C 41.933594 58.53125 38.601562 61.855469 34.488281 61.863281 C 30.375 61.855469 27.046875 58.523438 27.039062 54.414062 C 27.039062 52.351562 27.875 50.5 29.222656 49.144531 L 28.660156 48.582031 L 28.097656 49.144531 L 31.011719 52.0625 L 31.582031 51.492188 L 31.019531 50.929688 L 31.582031 51.492188 L 32.144531 50.929688 L 29.226562 48.015625 C 28.914062 47.703125 28.410156 47.703125 28.097656 48.015625 C 26.457031 49.644531 25.445312 51.914062 25.445312 54.414062 C 25.445312 59.414062 29.492188 63.460938 34.488281 63.460938 C 39.488281 63.460938 43.535156 59.414062 43.535156 54.414062 C 43.535156 54.039062 43.277344 53.71875 42.917969 53.636719 C 42.558594 53.554688 42.183594 53.734375 42.023438 54.066406 L 42.746094 54.414062 L 43.542969 54.414062 C 43.542969 51.914062 42.53125 49.652344 40.890625 48.015625 L 26.8125 33.929688 C 26.660156 33.773438 26.457031 33.691406 26.25 33.691406 C 26.035156 33.691406 25.832031 33.773438 25.6875 33.929688 L 22.769531 36.84375 C 22.457031 37.15625 22.457031 37.664062 22.769531 37.976562 L 36.851562 52.0625 C 37.480469 52.699219 37.824219 53.527344 37.828125 54.414062 C 37.828125 54.625 37.914062 54.832031 38.066406 54.976562 C 38.21875 55.121094 38.417969 55.214844 38.628906 55.214844 L 38.628906 54.414062 L 37.828125 54.414062 C 37.828125 56.246094 36.335938 57.734375 34.503906 57.742188 C 32.671875 57.742188 31.179688 56.246094 31.179688 54.414062 C 31.179688 53.519531 31.519531 52.691406 32.152344 52.0625 C 32.460938 51.75 32.460938 51.242188 32.152344 50.929688 Z M 31.582031 51.492188 " fill-opacity="1" fill-rule="nonzero"/><path fill="#b996ff" d="M 34.488281 42.746094 L 35.050781 42.183594 L 27.367188 34.496094 L 34.488281 27.382812 L 41.613281 34.496094 L 33.929688 42.183594 L 34.488281 42.746094 L 35.050781 42.183594 L 34.488281 42.746094 L 35.050781 43.308594 L 43.300781 35.058594 C 43.445312 34.914062 43.535156 34.707031 43.535156 34.496094 C 43.535156 34.289062 43.453125 34.082031 43.300781 33.933594 L 35.050781 25.679688 C 34.738281 25.367188 34.234375 25.367188 33.921875 25.679688 L 25.671875 33.929688 C 25.359375 34.238281 25.359375 34.746094 25.671875 35.058594 L 33.929688 43.3125 C 34.074219 43.460938 34.28125 43.550781 34.488281 43.550781 C 34.699219 43.550781 34.90625 43.464844 35.050781 43.3125 Z M 34.488281 42.746094 " fill-opacity="1" fill-rule="nonzero"/></svg>