<svg width="1200" height="630" viewBox="0 0 1200 630" fill="none" xmlns="http://www.w3.org/2000/svg">
<rect width="1200" height="630" rx="20" fill="url(#paint0_linear_202_18)"/>
<path d="M297.403 248.463C300.445 245.421 302.126 241.371 302.126 237.045C302.126 228.133 294.865 220.919 285.985 220.919C277.104 220.919 269.859 228.164 269.859 237.045C269.859 241.371 271.54 245.421 274.582 248.463L329.67 303.582L318.267 314.985L263.164 259.866C257.325 254.027 253.717 245.926 253.717 237.014C253.717 219.207 268.162 204.747 285.985 204.747C303.807 204.747 318.267 219.207 318.267 237.014C318.267 245.926 314.645 253.996 308.806 259.835L297.403 248.463Z" fill="#C0A0FF"/>
<path d="M297.403 248.463L299.604 250.664C303.242 247.041 305.244 242.15 305.244 237.014C305.244 226.406 296.608 217.755 285.985 217.755C275.361 217.755 266.756 226.406 266.725 237.014C266.725 242.15 268.743 247.026 272.381 250.664L325.268 303.582L318.283 310.567L265.365 257.665C260.076 252.376 256.836 245.085 256.836 237.045C256.836 236.235 256.515 235.425 255.918 234.844C255.322 234.278 254.528 233.927 253.717 233.927C252.907 233.927 252.082 234.248 251.516 234.844C250.951 235.44 250.584 236.235 250.584 237.045C250.584 237.87 250.92 238.68 251.516 239.246C252.112 239.827 252.907 240.178 253.717 240.178C254.528 240.178 255.338 239.842 255.918 239.246C256.484 238.65 256.836 237.87 256.836 237.045C256.866 220.934 269.905 207.926 285.985 207.896C302.095 207.926 315.103 220.965 315.134 237.045C315.134 245.115 311.878 252.376 306.605 257.665L308.806 259.866L311.007 257.665L299.604 246.262L297.403 248.463L295.202 250.664L306.605 262.067C307.185 262.632 307.996 262.999 308.806 262.999C309.616 262.999 310.441 262.663 311.007 262.067C317.427 255.662 321.386 246.797 321.386 237.014C321.386 217.464 305.55 201.629 285.985 201.629C266.435 201.629 250.584 217.464 250.584 237.014C250.584 237.84 250.92 238.65 251.516 239.215C252.112 239.796 252.907 240.148 253.717 240.148C254.528 240.148 255.338 239.827 255.918 239.215C256.484 238.619 256.836 237.84 256.836 237.014C256.836 236.204 256.515 235.394 255.918 234.828C255.322 234.248 254.528 233.896 253.717 233.896C252.907 233.896 252.082 234.217 251.516 234.828C250.951 235.425 250.584 236.204 250.584 237.014C250.584 246.782 254.558 255.662 260.963 262.067L316.082 317.155C317.304 318.378 319.291 318.378 320.514 317.155L331.932 305.752C332.498 305.187 332.85 304.361 332.85 303.551C332.85 302.741 332.529 301.916 331.932 301.35L276.783 246.262C274.307 243.786 272.977 240.56 272.946 237.045C272.946 229.876 278.785 224.037 285.954 224.037C293.138 224.037 298.977 229.876 298.977 237.045C298.977 240.56 297.647 243.786 295.171 246.262C294.575 246.858 294.254 247.638 294.254 248.463C294.254 249.304 294.575 250.083 295.171 250.664L297.403 248.463Z" fill="#C0A0FF"/>
<path d="M352.491 326.403C355.533 329.445 359.584 331.126 363.894 331.126C372.79 331.126 380.035 323.866 380.035 314.985C380.035 306.073 372.805 298.859 363.925 298.859C359.614 298.859 355.564 300.54 352.522 303.582L297.403 358.67L285.985 347.267L341.104 292.164C346.943 286.325 355.013 282.717 363.925 282.717C381.747 282.717 396.207 297.162 396.207 315.015C396.207 332.869 381.747 347.283 363.925 347.283C355.013 347.283 346.943 343.675 341.104 337.836L352.491 326.403Z" fill="#C0A0FF"/>
<path d="M352.491 326.403L350.29 328.604C353.897 332.242 358.789 334.244 363.925 334.244C374.548 334.244 383.184 325.608 383.184 314.985C383.184 304.361 374.578 295.725 363.955 295.725C363.114 295.725 362.32 296.046 361.754 296.658C361.158 297.254 360.837 298.033 360.837 298.859H363.955V295.725C358.819 295.725 353.959 297.743 350.321 301.35L297.403 354.268L290.417 347.283L343.305 294.365C348.609 289.107 355.854 285.836 363.925 285.836C365.361 285.836 366.645 284.827 366.966 283.421C367.303 282.014 366.615 280.547 365.316 279.92L363.925 282.717V285.836C380.035 285.866 393.043 298.905 393.074 315.015C393.043 331.126 380.005 344.134 363.925 344.164C355.854 344.164 348.609 340.909 343.305 335.635L341.104 337.836L343.305 340.037L354.723 328.619L352.491 326.403L350.29 324.202L338.887 335.605C337.664 336.827 337.664 338.815 338.887 340.037C345.261 346.442 354.142 350.416 363.925 350.416C383.49 350.416 399.325 334.581 399.325 315.015C399.325 295.45 383.49 279.584 363.925 279.584C362.488 279.584 361.204 280.593 360.883 282.014C360.562 283.421 361.234 284.888 362.549 285.515L363.925 282.717V279.584C354.142 279.584 345.292 283.558 338.887 289.963L283.784 345.066C283.218 345.632 282.867 346.442 282.867 347.267C282.867 348.077 283.188 348.888 283.784 349.468L295.202 360.871C296.425 362.094 298.396 362.094 299.619 360.871L354.723 305.783C357.214 303.307 360.424 301.977 363.925 301.977C364.75 301.977 365.56 301.656 366.126 301.045C366.691 300.448 367.058 299.669 367.058 298.859H363.925V301.977C371.093 301.977 376.948 307.816 376.917 314.985C376.917 322.154 371.078 328.008 363.894 328.008C360.394 328.008 357.168 326.663 354.692 324.202C354.096 323.606 353.301 323.269 352.491 323.269C351.65 323.269 350.856 323.606 350.29 324.202L352.491 326.403Z" fill="#C0A0FF"/>
<path d="M219.463 303.582C216.391 300.54 212.371 298.859 208.045 298.859C199.133 298.859 191.919 306.104 191.919 314.985C191.919 323.896 199.133 331.126 208.045 331.157C212.371 331.157 216.421 329.475 219.463 326.418L274.582 271.299L285.985 282.717L230.866 337.806C225.027 343.645 216.926 347.267 208.014 347.267C190.176 347.267 175.747 332.807 175.747 314.954C175.747 297.147 190.207 282.687 208.014 282.687C216.926 282.687 224.996 286.294 230.835 292.148L219.463 303.582Z" fill="#C0A0FF"/>
<path d="M219.463 303.582L221.664 301.381C218.041 297.743 213.15 295.725 208.014 295.725C197.406 295.725 188.755 304.361 188.755 314.985C188.755 325.608 197.376 334.244 208.014 334.275C208.87 334.275 209.65 333.954 210.215 333.358C210.827 332.762 211.148 331.967 211.148 331.157H208.014V334.275C213.15 334.275 218.026 332.272 221.664 328.619L274.582 275.701L281.567 282.687L228.665 335.605C223.376 340.878 216.085 344.134 208.045 344.164C206.669 344.164 205.462 345.066 205.064 346.365C204.651 347.665 205.171 349.102 206.318 349.866L208.045 347.283V344.164C191.934 344.103 178.926 331.095 178.896 314.985C178.926 298.874 191.934 285.866 208.045 285.836C216.115 285.836 223.376 289.107 228.665 294.365L230.866 292.164L228.665 289.963L217.262 301.381L219.463 303.582L221.664 305.783L233.067 294.365C233.663 293.769 233.999 292.989 233.999 292.164C233.999 291.323 233.663 290.543 233.067 289.963C226.662 283.589 217.797 279.584 208.014 279.614C188.464 279.614 172.629 295.45 172.629 315.015C172.629 334.581 188.464 350.447 208.014 350.447C209.405 350.447 210.597 349.545 211.01 348.246C211.423 346.931 210.903 345.494 209.757 344.73L208.014 347.313V350.447C217.782 350.447 226.662 346.472 233.067 340.068L288.186 284.964C289.409 283.742 289.409 281.77 288.186 280.547L276.783 269.129C275.56 267.906 273.573 267.906 272.35 269.129L217.262 324.202C214.755 326.663 211.56 328.008 208.045 328.023C207.235 328.023 206.425 328.359 205.844 328.956C205.278 329.552 204.927 330.331 204.927 331.157H208.045V328.023C200.876 328.023 195.037 322.184 195.037 314.985C195.037 307.816 200.876 302.007 208.045 301.977C211.56 301.977 214.755 303.307 217.262 305.783C218.485 307.006 220.457 307.006 221.679 305.783L219.463 303.582Z" fill="#C0A0FF"/>
<mask id="mask0_202_18" style="mask-type:luminance" maskUnits="userSpaceOnUse" x="152" y="181" width="268" height="268">
<path d="M152.467 181.467H419.533V448.533H152.467V181.467Z" fill="white"/>
</mask>
<g mask="url(#mask0_202_18)">
<path d="M363.925 262.525V259.407C350.535 259.407 337.848 264.161 327.79 272.797L329.838 275.166L332.039 272.965L328.035 268.976L325.834 271.177L328.203 273.21C336.839 263.152 341.577 250.435 341.577 237.045C341.577 206.413 316.662 181.467 285.985 181.467C255.322 181.467 230.407 206.413 230.407 237.045C230.407 250.435 235.192 263.122 243.797 273.179L246.166 271.146L243.965 268.945L239.976 272.935L242.177 275.136L244.21 272.767C234.152 264.13 221.419 259.407 208.014 259.407C177.413 259.407 152.467 284.338 152.467 314.985C152.467 345.662 177.413 370.577 208.045 370.593C208.87 370.593 209.68 370.272 210.246 369.676C210.827 369.079 211.178 368.285 211.178 367.475H208.045V370.593C221.435 370.593 234.122 365.839 244.179 357.203L242.146 354.834L239.945 357.035L243.935 361.039L246.136 358.838L243.767 356.79C235.13 366.848 230.407 379.596 230.407 392.955C230.407 423.602 255.338 448.533 285.985 448.533C316.662 448.533 341.577 423.602 341.577 392.955C341.577 392.145 341.241 391.32 340.645 390.754C340.049 390.189 339.254 389.837 338.444 389.837V392.955H341.577C341.577 379.565 336.824 366.878 328.172 356.821L325.818 358.869L328.019 361.055L332.009 357.065L329.808 354.864L327.775 357.233C337.817 365.9 350.565 370.593 363.955 370.593C394.602 370.593 419.533 345.662 419.533 315.015C419.533 284.338 394.602 259.438 363.955 259.407C363.145 259.407 362.32 259.728 361.754 260.324C361.189 260.921 360.837 261.715 360.837 262.525H363.925V265.659C391.117 265.705 413.204 287.792 413.266 314.985C413.204 342.177 391.117 364.265 363.925 364.326C352.002 364.326 340.783 360.138 331.81 352.449C330.572 351.394 328.722 351.44 327.576 352.617L323.587 356.607C322.44 357.753 322.364 359.618 323.418 360.841C331.107 369.813 335.326 381.002 335.326 392.894C335.326 393.719 335.647 394.53 336.243 395.095C336.839 395.676 337.634 396.028 338.444 396.028V392.894H335.326C335.265 420.117 313.177 442.204 285.985 442.266C258.792 442.204 236.674 420.117 236.659 392.925C236.659 381.002 240.832 369.783 248.52 360.81C249.59 359.572 249.529 357.723 248.368 356.576L244.363 352.587C243.232 351.44 241.352 351.364 240.129 352.418C231.172 360.107 219.967 364.326 208.075 364.326C207.265 364.326 206.44 364.647 205.874 365.243C205.309 365.839 204.957 366.634 204.957 367.444H208.075V364.326C180.852 364.265 158.765 342.177 158.719 314.985C158.765 287.792 180.852 265.705 208.045 265.659C219.967 265.659 231.187 269.832 240.159 277.52C241.413 278.59 243.262 278.499 244.393 277.368L248.398 273.363C249.529 272.232 249.606 270.352 248.551 269.129C240.862 260.187 236.659 248.967 236.659 237.075C236.705 209.852 258.792 187.765 285.985 187.719C313.177 187.765 335.265 209.852 335.326 237.045C335.326 248.967 331.138 260.217 323.48 269.159C322.425 270.413 322.471 272.262 323.648 273.393L327.637 277.398C328.768 278.529 330.648 278.606 331.871 277.551C340.844 269.862 352.033 265.659 363.925 265.659C364.75 265.659 365.56 265.323 366.126 264.727C366.691 264.13 367.058 263.351 367.058 262.525H363.925Z" fill="#C0A0FF"/>
</g>
<path d="M274.582 381.491C271.54 384.533 269.859 388.584 269.859 392.894C269.859 401.79 277.104 409.035 285.985 409.035C294.865 409.035 302.126 401.805 302.126 392.894C302.126 388.584 300.445 384.533 297.403 381.491L242.284 326.403L253.687 314.985L308.806 370.104C314.645 375.943 318.267 384.013 318.267 392.925C318.267 410.747 303.807 425.207 285.985 425.207C268.147 425.207 253.717 410.747 253.717 392.925C253.717 384.013 257.325 375.943 263.164 370.104L274.582 381.491Z" fill="#C0A0FF"/>
<path d="M274.582 381.491L272.381 379.29C268.758 382.897 266.725 387.789 266.756 392.894C266.756 403.517 275.392 412.169 286.015 412.169C296.639 412.169 305.275 403.548 305.275 392.894C305.275 392.053 304.954 391.274 304.358 390.693C303.762 390.097 302.967 389.776 302.157 389.776V392.894H305.275C305.275 387.773 303.272 382.897 299.65 379.26L246.701 326.403L253.687 319.387L306.574 372.305C311.878 377.609 315.134 384.854 315.134 392.925C315.134 394.392 316.143 395.645 317.549 395.966C318.97 396.303 320.438 395.584 321.065 394.285L318.237 392.925H315.103C315.088 409.035 302.05 422.043 285.954 422.074C269.859 422.043 256.836 409.005 256.805 392.925C256.805 384.854 260.076 377.609 265.35 372.305L263.148 370.104L260.947 372.305L272.35 383.723L274.582 381.491L276.783 379.29L265.365 367.887C264.142 366.664 262.17 366.664 260.947 367.887C254.528 374.261 250.569 383.142 250.569 392.925C250.569 412.49 266.404 428.325 285.954 428.325C305.519 428.325 321.355 412.49 321.355 392.925C321.355 391.457 320.346 390.204 318.94 389.883C317.534 389.562 316.066 390.265 315.44 391.564L318.267 392.925H321.386C321.386 383.142 317.427 374.292 311.007 367.887L255.918 312.768C255.322 312.157 254.528 311.836 253.717 311.836C252.877 311.836 252.082 312.157 251.516 312.768L240.098 324.171C238.875 325.394 238.875 327.381 240.098 328.604L295.202 383.723C297.663 386.214 299.008 389.455 299.023 392.925C299.023 393.75 299.359 394.56 299.955 395.126C300.552 395.691 301.331 396.058 302.157 396.058V392.925H299.023C299.023 400.093 293.184 405.917 286.015 405.948C278.846 405.948 273.007 400.093 273.007 392.925C273.007 389.424 274.337 386.184 276.814 383.723C278.021 382.5 278.021 380.513 276.814 379.29L274.582 381.491Z" fill="#C0A0FF"/>
<path d="M285.954 347.267L288.155 345.066L258.089 314.985L285.954 287.15L313.835 314.985L283.768 345.066L285.954 347.267L288.155 349.468L320.438 317.186C321.003 316.62 321.355 315.81 321.355 314.985C321.355 314.175 321.034 313.364 320.438 312.784L288.155 280.486C286.932 279.263 284.961 279.263 283.738 280.486L251.455 312.768C250.232 313.976 250.232 315.963 251.455 317.186L283.768 349.484C284.334 350.065 285.144 350.416 285.954 350.416C286.78 350.416 287.59 350.08 288.155 349.484L285.954 347.267Z" fill="#C0A0FF"/>
<path d="M460.229 384.5V257.632H521.102C535.68 257.632 546.384 261.506 553.213 269.255C560.042 276.872 563.457 287.182 563.457 300.184C563.457 308.721 561.224 316.075 556.759 322.248C552.425 328.421 546.252 332.886 538.241 335.644C540.342 337.351 541.984 339.19 543.166 341.16C544.479 343.13 545.793 345.757 547.106 349.04L562.472 384.5H534.892L519.92 350.419C518.607 347.53 517.162 345.494 515.586 344.312C514.01 343.13 511.383 342.539 507.706 342.539H486.824V384.5H460.229ZM486.824 320.475H514.207C521.168 320.475 526.618 318.965 530.558 315.944C534.498 312.792 536.468 307.539 536.468 300.184C536.468 293.092 534.761 287.904 531.346 284.621C527.931 281.338 522.744 279.696 515.783 279.696H486.824V320.475ZM627.781 386.47C611.627 386.47 598.822 382.464 589.366 374.453C579.91 366.31 575.182 354.031 575.182 337.614C575.182 322.773 579.122 311.019 587.002 302.351C595.013 293.552 606.899 289.152 622.659 289.152C637.105 289.152 648.137 292.961 655.755 300.578C663.503 308.064 667.378 317.914 667.378 330.128V347.07H599.807C601.251 354.556 604.666 359.678 610.051 362.436C615.567 365.194 623.315 366.573 633.297 366.573C638.287 366.573 643.344 366.113 648.466 365.194C653.719 364.275 658.184 363.093 661.862 361.648V380.56C657.528 382.53 652.471 383.975 646.693 384.894C640.914 385.945 634.61 386.47 627.781 386.47ZM599.807 330.719H644.132V325.597C644.132 320.212 642.556 316.01 639.404 312.989C636.252 309.837 630.933 308.261 623.447 308.261C614.647 308.261 608.475 310.034 604.929 313.58C601.514 317.126 599.807 322.839 599.807 330.719ZM725.294 419.172C718.333 419.172 711.176 418.712 703.821 417.793C696.598 416.874 690.491 415.56 685.5 413.853V393.956C690.753 395.663 696.926 396.977 704.018 397.896C711.11 398.947 717.742 399.472 723.915 399.472C732.977 399.472 739.544 398.947 743.615 397.896C747.686 396.977 749.722 395.269 749.722 392.774C749.722 390.673 748.803 389.228 746.964 388.44C745.257 387.652 741.579 387.258 735.932 387.258H710.519C693.84 387.258 685.5 381.085 685.5 368.74C685.5 364.931 686.551 361.451 688.652 358.299C690.753 355.147 694.102 352.652 698.699 350.813C688.061 345.428 682.742 336.366 682.742 323.627C682.742 311.544 686.485 302.811 693.971 297.426C701.457 291.91 712.555 289.152 727.264 289.152C730.285 289.152 733.568 289.415 737.114 289.94C740.791 290.334 743.549 290.728 745.388 291.122H780.454L779.863 307.867H765.088C769.159 311.676 771.195 316.995 771.195 323.824C771.195 333.411 768.174 341.094 762.133 346.873C756.092 352.52 747.161 355.344 735.341 355.344C733.24 355.344 731.204 355.278 729.234 355.147C727.395 354.884 725.491 354.622 723.521 354.359C719.581 354.884 716.232 355.804 713.474 357.117C710.847 358.43 709.534 360.203 709.534 362.436C709.534 365.457 712.226 366.967 717.611 366.967H744.009C753.465 366.967 760.754 369.134 765.876 373.468C770.998 377.671 773.559 383.843 773.559 391.986C773.559 401.179 769.422 408.009 761.148 412.474C752.874 416.939 740.923 419.172 725.294 419.172ZM727.461 340.372C735.341 340.372 740.791 339.059 743.812 336.432C746.964 333.674 748.54 329.077 748.54 322.642C748.54 316.207 746.964 311.544 743.812 308.655C740.791 305.766 735.341 304.321 727.461 304.321C719.975 304.321 714.59 305.766 711.307 308.655C708.024 311.413 706.382 316.075 706.382 322.642C706.382 328.683 707.892 333.149 710.913 336.038C714.065 338.927 719.581 340.372 727.461 340.372ZM798.013 273.983V253.101H826.972V273.983H798.013ZM800.18 384.5V310.822H786.193L788.557 291.122H826.775V384.5H800.18ZM854.344 384.5V311.61H841.342V291.122H854.344V281.666C854.344 271.947 857.102 264.002 862.618 257.829C868.134 251.656 876.277 248.57 887.046 248.57C891.38 248.57 895.255 248.898 898.669 249.555C902.084 250.212 905.236 251.131 908.125 252.313V270.634C906.155 269.977 904.251 269.452 902.412 269.058C900.574 268.664 898.538 268.467 896.305 268.467C890.658 268.467 886.652 269.518 884.288 271.619C882.056 273.589 880.939 277.069 880.939 282.06V291.122H904.579L903.397 311.61H880.939V384.5H854.344ZM953.597 386.47C942.828 386.47 934.816 383.646 929.563 377.999C924.441 372.352 921.88 364.669 921.88 354.95V311.61H908.681V291.122H921.88V271.028L948.475 263.148V291.122H972.115L970.539 311.61H948.475V353.177C948.475 358.299 949.657 361.845 952.021 363.815C954.385 365.654 958.062 366.573 963.053 366.573C966.73 366.573 970.539 365.916 974.479 364.603V382.924C971.59 384.106 968.438 384.96 965.023 385.485C961.608 386.142 957.8 386.47 953.597 386.47ZM1025.16 386.47C1014.39 386.47 1006.38 383.646 1001.13 377.999C996.007 372.352 993.446 364.669 993.446 354.95V311.61H980.247V291.122H993.446V271.028L1020.04 263.148V291.122H1043.68L1042.11 311.61H1020.04V353.177C1020.04 358.299 1021.22 361.845 1023.59 363.815C1025.95 365.654 1029.63 366.573 1034.62 366.573C1038.3 366.573 1042.11 365.916 1046.05 364.603V382.924C1043.16 384.106 1040 384.96 1036.59 385.485C1033.17 386.142 1029.37 386.47 1025.16 386.47Z" fill="white"/>
<defs>
<linearGradient id="paint0_linear_202_18" x1="-3.7998e-07" y1="315" x2="1200" y2="315" gradientUnits="userSpaceOnUse">
<stop stop-color="#171717"/>
<stop offset="0.990769" stop-color="#424242"/>
</linearGradient>
</defs>
</svg>
